<?xml version="1.0" standalone="no"?>
<!DOCTYPE svg PUBLIC "-//W3C//DTD SVG 20010904//EN"
 "http://www.w3.org/TR/2001/REC-SVG-20010904/DTD/svg10.dtd">
<svg version="1.0" xmlns="http://www.w3.org/2000/svg"
 width="512.000000pt" height="512.000000pt" viewBox="0 0 512.000000 512.000000"
 preserveAspectRatio="xMidYMid meet">
<metadata>
Created by potrace 1.11, written by Peter Selinger 2001-2013
</metadata>
<g transform="translate(0.000000,512.000000) scale(0.100000,-0.100000)"
fill="#000000" stroke="none">
<path d="M2361 4970 c-51 -11 -115 -47 -153 -87 -50 -52 -71 -117 -76 -235
l-5 -108 315 0 315 0 61 -31 c87 -43 133 -106 151 -204 l7 -40 114 1 c94 0
123 4 161 21 59 26 116 84 142 142 39 89 32 302 -13 391 -26 51 -81 103 -137
131 -48 24 -50 24 -443 26 -217 1 -415 -2 -439 -7z"/>
<path d="M935 4550 c-185 -25 -349 -148 -439 -331 -26 -52 -51 -119 -57 -149
-5 -30 -66 -392 -135 -805 -68 -412 -134 -795 -145 -850 -19 -96 -20 -132 -17
-955 l3 -855 23 -67 c12 -37 45 -101 72 -142 82 -121 192 -200 335 -236 77
-20 110 -20 1985 -20 1867 0 1908 0 1984 20 190 48 345 192 408 378 l23 67 3
855 c3 823 2 859 -17 955 -11 55 -79 450 -151 878 -78 461 -139 802 -152 835
-73 199 -236 360 -412 408 -69 19 -291 31 -300 16 -4 -7 -1 -22 6 -34 9 -16
15 -83 18 -208 l5 -185 60 -15 c79 -21 115 -41 153 -85 63 -72 67 -84 72 -284
l5 -183 66 -17 c78 -20 130 -56 169 -118 43 -67 50 -122 50 -368 l0 -225 -47
8 c-63 9 -3824 9 -3886 0 l-48 -8 3 258 c3 257 3 257 30 308 44 84 117 136
212 153 l41 7 5 184 c5 179 6 187 32 231 48 82 102 120 203 143 l50 11 5 185
c3 125 9 192 18 208 7 12 10 27 7 32 -7 12 -152 11 -240 0z m2286 -2749 l39
-39 0 -261 c0 -285 -3 -300 -57 -337 -27 -18 -58 -19 -623 -22 -663 -3 -661
-3 -701 62 -17 28 -19 53 -19 295 l0 263 39 39 39 39 622 0 622 0 39 -39z"/>
<path d="M1744 4399 c-69 -26 -128 -79 -158 -142 -27 -56 -31 -81 -28 -199 l2
-78 303 0 c348 0 375 -4 451 -71 55 -49 76 -85 91 -159 l12 -55 101 1 c95 0
105 2 169 35 128 65 167 150 161 353 -3 114 -5 126 -34 182 -18 35 -48 72 -73
91 -78 60 -101 63 -545 62 -373 0 -405 -1 -452 -20z"/>
<path d="M1170 3823 c-68 -25 -145 -106 -165 -178 -26 -86 -17 -293 13 -352
34 -66 78 -110 140 -140 l57 -28 420 0 420 0 57 28 c62 30 106 74 140 140 18
35 23 63 26 174 5 167 -8 214 -82 288 -85 85 -83 85 -565 84 -352 0 -423 -3
-461 -16z"/>
</g>
</svg>
